<?xml version="1.0" encoding="UTF-8" standalone="no"?>
<!DOCTYPE svg PUBLIC "-//W3C//DTD SVG 1.1//EN"
 "http://www.w3.org/Graphics/SVG/1.1/DTD/svg11.dtd">
<!-- Generated by graphviz version 2.43.0 (0)
 -->
<!-- Title: Architecture Pages: 1 -->
<svg width="2010pt" height="69pt"
 viewBox="0.00 0.00 2010.00 69.00" xmlns="http://www.w3.org/2000/svg" xmlns:xlink="http://www.w3.org/1999/xlink">
<g id="graph0" class="graph" transform="scale(1 1) rotate(0) translate(4 65)">
<title>Architecture</title>
<polygon fill="white" stroke="transparent" points="-4,4 -4,-65 2006,-65 2006,4 -4,4"/>
<!-- sensors -->
<g id="node1" class="node">
<title>sensors</title>
<path fill="#dbeafe" stroke="black" d="M141,-54.5C141,-54.5 12,-54.5 12,-54.5 6,-54.5 0,-48.5 0,-42.5 0,-42.5 0,-18.5 0,-18.5 0,-12.5 6,-6.5 12,-6.5 12,-6.5 141,-6.5 141,-6.5 147,-6.5 153,-12.5 153,-18.5 153,-18.5 153,-42.5 153,-42.5 153,-48.5 147,-54.5 141,-54.5"/>
<text text-anchor="middle" x="76.5" y="-33.9" font-family="Helvetica,sans-Serif" font-size="12.00">IoT Sensors</text>
<text text-anchor="middle" x="76.5" y="-20.9" font-family="Helvetica,sans-Serif" font-size="12.00">(simulated devices)</text>
</g>
<!-- postgres -->
<g id="node2" class="node">
<title>postgres</title>
<path fill="#93c5fd" stroke="black" d="M386,-54.5C386,-54.5 230,-54.5 230,-54.5 224,-54.5 218,-48.5 218,-42.5 218,-42.5 218,-18.5 218,-18.5 218,-12.5 224,-6.5 230,-6.5 230,-6.5 386,-6.5 386,-6.5 392,-6.5 398,-12.5 398,-18.5 398,-18.5 398,-42.5 398,-42.5 398,-48.5 392,-54.5 386,-54.5"/>
<text text-anchor="middle" x="308" y="-33.9" font-family="Helvetica,sans-Serif" font-size="12.00">PostgreSQL</text>
<text text-anchor="middle" x="308" y="-20.9" font-family="Helvetica,sans-Serif" font-size="12.00">(WAL logical replication)</text>
</g>
<!-- sensors&#45;&gt;postgres -->
<g id="edge1" class="edge">
<title>sensors&#45;&gt;postgres</title>
<path fill="none" stroke="#555555" stroke-width="1.2" d="M153.26,-30.5C153.26,-30.5 207.79,-30.5 207.79,-30.5"/>
<polygon fill="#555555" stroke="#555555" stroke-width="1.2" points="207.79,-34 217.79,-30.5 207.79,-27 207.79,-34"/>
</g>
<!-- debezium -->
<g id="node3" class="node">
<title>debezium</title>
<path fill="#a7f3d0" stroke="black" d="M627,-54.5C627,-54.5 475,-54.5 475,-54.5 469,-54.5 463,-48.5 463,-42.5 463,-42.5 463,-18.5 463,-18.5 463,-12.5 469,-6.5 475,-6.5 475,-6.5 627,-6.5 627,-6.5 633,-6.5 639,-12.5 639,-18.5 639,-18.5 639,-42.5 639,-42.5 639,-48.5 633,-54.5 627,-54.5"/>
<text text-anchor="middle" x="551" y="-33.9" font-family="Helvetica,sans-Serif" font-size="12.00">Debezium CDC</text>
<text text-anchor="middle" x="551" y="-20.9" font-family="Helvetica,sans-Serif" font-size="12.00">(Kafka Connect source)</text>
</g>
<!-- postgres&#45;&gt;debezium -->
<g id="edge2" class="edge">
<title>postgres&#45;&gt;debezium</title>
<path fill="none" stroke="#555555" stroke-width="1.2" d="M398.14,-30.5C398.14,-30.5 452.62,-30.5 452.62,-30.5"/>
<polygon fill="#555555" stroke="#555555" stroke-width="1.2" points="452.62,-34 462.62,-30.5 452.62,-27 452.62,-34"/>
</g>
<!-- kafka -->
<g id="node4" class="node">
<title>kafka</title>
<path fill="#6ee7b7" stroke="black" d="M890,-54.5C890,-54.5 716,-54.5 716,-54.5 710,-54.5 704,-48.5 704,-42.5 704,-42.5 704,-18.5 704,-18.5 704,-12.5 710,-6.5 716,-6.5 716,-6.5 890,-6.5 890,-6.5 896,-6.5 902,-12.5 902,-18.5 902,-18.5 902,-42.5 902,-42.5 902,-48.5 896,-54.5 890,-54.5"/>
<text text-anchor="middle" x="803" y="-33.9" font-family="Helvetica,sans-Serif" font-size="12.00">Kafka</text>
<text text-anchor="middle" x="803" y="-20.9" font-family="Helvetica,sans-Serif" font-size="12.00">topic: cdc.public.iot_events</text>
</g>
<!-- debezium&#45;&gt;kafka -->
<g id="edge3" class="edge">
<title>debezium&#45;&gt;kafka</title>
<path fill="none" stroke="#555555" stroke-width="1.2" d="M639.14,-30.5C639.14,-30.5 693.71,-30.5 693.71,-30.5"/>
<polygon fill="#555555" stroke="#555555" stroke-width="1.2" points="693.71,-34 703.71,-30.5 693.71,-27 693.71,-34"/>
</g>
<!-- sfconn -->
<g id="node5" class="node">
<title>sfconn</title>
<path fill="#a7f3d0" stroke="black" d="M1091,-54.5C1091,-54.5 979,-54.5 979,-54.5 973,-54.5 967,-48.5 967,-42.5 967,-42.5 967,-18.5 967,-18.5 967,-12.5 973,-6.5 979,-6.5 979,-6.5 1091,-6.5 1091,-6.5 1097,-6.5 1103,-12.5 1103,-18.5 1103,-18.5 1103,-42.5 1103,-42.5 1103,-48.5 1097,-54.5 1091,-54.5"/>
<text text-anchor="middle" x="1035" y="-33.9" font-family="Helvetica,sans-Serif" font-size="12.00">Snowflake</text>
<text text-anchor="middle" x="1035" y="-20.9" font-family="Helvetica,sans-Serif" font-size="12.00">Kafka Connector</text>
</g>
<!-- kafka&#45;&gt;sfconn -->
<g id="edge4" class="edge">
<title>kafka&#45;&gt;sfconn</title>
<path fill="none" stroke="#555555" stroke-width="1.2" d="M902.06,-30.5C902.06,-30.5 956.74,-30.5 956.74,-30.5"/>
<polygon fill="#555555" stroke="#555555" stroke-width="1.2" points="956.74,-34 966.74,-30.5 956.74,-27 956.74,-34"/>
</g>
<!-- bronze -->
<g id="node6" class="node">
<title>bronze</title>
<path fill="#fde68a" stroke="black" d="M1297,-54.5C1297,-54.5 1180,-54.5 1180,-54.5 1174,-54.5 1168,-48.5 1168,-42.5 1168,-42.5 1168,-18.5 1168,-18.5 1168,-12.5 1174,-6.5 1180,-6.5 1180,-6.5 1297,-6.5 1297,-6.5 1303,-6.5 1309,-12.5 1309,-18.5 1309,-18.5 1309,-42.5 1309,-42.5 1309,-48.5 1303,-54.5 1297,-54.5"/>
<text text-anchor="middle" x="1238.5" y="-33.9" font-family="Helvetica,sans-Serif" font-size="12.00">Bronze &#45; RAW</text>
<text text-anchor="middle" x="1238.5" y="-20.9" font-family="Helvetica,sans-Serif" font-size="12.00">(raw CDC events)</text>
</g>
<!-- sfconn&#45;&gt;bronze -->
<g id="edge5" class="edge">
<title>sfconn&#45;&gt;bronze</title>
<path fill="none" stroke="#555555" stroke-width="1.2" d="M1103.05,-30.5C1103.05,-30.5 1157.73,-30.5 1157.73,-30.5"/>
<polygon fill="#555555" stroke="#555555" stroke-width="1.2" points="1157.73,-34 1167.73,-30.5 1157.73,-27 1157.73,-34"/>
</g>
<!-- silver -->
<g id="node7" class="node">
<title>silver</title>
<path fill="#fcd34d" stroke="black" d="M1534,-54.5C1534,-54.5 1386,-54.5 1386,-54.5 1380,-54.5 1374,-48.5 1374,-42.5 1374,-42.5 1374,-18.5 1374,-18.5 1374,-12.5 1380,-6.5 1386,-6.5 1386,-6.5 1534,-6.5 1534,-6.5 1540,-6.5 1546,-12.5 1546,-18.5 1546,-18.5 1546,-42.5 1546,-42.5 1546,-48.5 1540,-54.5 1534,-54.5"/>
<text text-anchor="middle" x="1460" y="-33.9" font-family="Helvetica,sans-Serif" font-size="12.00">Silver &#45; CLEAN</text>
<text text-anchor="middle" x="1460" y="-20.9" font-family="Helvetica,sans-Serif" font-size="12.00">(dbt: validate, dedupe)</text>
</g>
<!-- bronze&#45;&gt;silver -->
<g id="edge6" class="edge">
<title>bronze&#45;&gt;silver</title>
<path fill="none" stroke="#555555" stroke-width="1.2" d="M1309.19,-30.5C1309.19,-30.5 1363.69,-30.5 1363.69,-30.5"/>
<polygon fill="#555555" stroke="#555555" stroke-width="1.2" points="1363.69,-34 1373.69,-30.5 1363.69,-27 1363.69,-34"/>
</g>
<!-- gold -->
<g id="node8" class="node">
<title>gold</title>
<path fill="#f59e0b" stroke="black" d="M1766,-54.5C1766,-54.5 1623,-54.5 1623,-54.5 1617,-54.5 1611,-48.5 1611,-42.5 1611,-42.5 1611,-18.5 1611,-18.5 1611,-12.5 1617,-6.5 1623,-6.5 1623,-6.5 1766,-6.5 1766,-6.5 1772,-6.5 1778,-12.5 1778,-18.5 1778,-18.5 1778,-42.5 1778,-42.5 1778,-48.5 1772,-54.5 1766,-54.5"/>
<text text-anchor="middle" x="1694.5" y="-33.9" font-family="Helvetica,sans-Serif" font-size="12.00" fill="white">Gold &#45; ANALYTICS</text>
<text text-anchor="middle" x="1694.5" y="-20.9" font-family="Helvetica,sans-Serif" font-size="12.00" fill="white">(dbt: daily agg, top&#45;N)</text>
</g>
<!-- silver&#45;&gt;gold -->
<g id="edge7" class="edge">
<title>silver&#45;&gt;gold</title>
<path fill="none" stroke="#555555" stroke-width="1.2" d="M1546.32,-30.5C1546.32,-30.5 1600.71,-30.5 1600.71,-30.5"/>
<polygon fill="#555555" stroke="#555555" stroke-width="1.2" points="1600.71,-34 1610.71,-30.5 1600.71,-27 1600.71,-34"/>
</g>
<!-- streamlit -->
<g id="node9" class="node">
<title>streamlit</title>
<path fill="#818cf8" stroke="black" d="M1990,-61C1990,-61 1855,-61 1855,-61 1849,-61 1843,-55 1843,-49 1843,-49 1843,-12 1843,-12 1843,-6 1849,0 1855,0 1855,0 1990,0 1990,0 1996,0 2002,-6 2002,-12 2002,-12 2002,-49 2002,-49 2002,-55 1996,-61 1990,-61"/>
<text text-anchor="middle" x="1922.5" y="-40.4" font-family="Helvetica,sans-Serif" font-size="12.00" fill="white">Streamlit Dashboard</text>
<text text-anchor="middle" x="1922.5" y="-27.4" font-family="Helvetica,sans-Serif" font-size="12.00" fill="white">map &#45; trend &#45; top&#45;N</text>
<text text-anchor="middle" x="1922.5" y="-14.4" font-family="Helvetica,sans-Serif" font-size="12.00" fill="white">auto&#45;refresh 30s</text>
</g>
<!-- gold&#45;&gt;streamlit -->
<g id="edge8" class="edge">
<title>gold&#45;&gt;streamlit</title>
<path fill="none" stroke="#555555" stroke-width="1.2" d="M1778.1,-30.5C1778.1,-30.5 1832.7,-30.5 1832.7,-30.5"/>
<polygon fill="#555555" stroke="#555555" stroke-width="1.2" points="1832.7,-34 1842.7,-30.5 1832.7,-27 1832.7,-34"/>
</g>
</g>
</svg>
